<svg width="86" height="86" viewBox="0 0 86 86" fill="none" xmlns="http://www.w3.org/2000/svg">
<g clip-path="url(#clip0_1_308)">
<path d="M60.3159 48.4129C63.2169 44.5876 64.7502 40.0216 64.7502 35.2085C64.7502 29.3072 62.4357 23.7752 58.2331 19.6314C54.0311 15.4886 48.4619 13.2513 42.5599 13.3366C36.8404 13.4175 31.4517 15.7126 27.3867 19.7989C23.3218 23.8851 21.0546 29.2859 21.0026 35.006C20.9581 39.9098 22.5004 44.5578 25.4628 48.4479C30.2718 54.7629 32.9204 62.4984 32.9204 70.2293V78.6885C32.9204 82.4408 35.973 85.4934 39.7253 85.4934H46.0549C49.8072 85.4934 52.8598 82.4406 52.8598 78.6885V70.2299C52.86 62.4135 55.4196 54.8691 60.3159 48.4129ZM27.6941 46.7489C25.1124 43.3588 23.7683 39.307 23.807 35.0316C23.9003 24.7605 32.3305 16.2862 42.5995 16.1409C47.7511 16.0717 52.601 18.0171 56.2639 21.6288C59.9279 25.2412 61.9457 30.0641 61.9457 35.2087C61.9457 39.4046 60.6094 43.3846 58.0813 46.7184C52.9222 53.5213 50.1445 61.4577 50.0308 69.7025H35.721C35.6037 61.5377 32.7637 53.4061 27.6941 46.7489ZM35.7249 77.7382V76.6029L50.0555 78.2447V78.6885C50.0555 78.9222 50.0311 79.15 49.9926 79.3726L35.7249 77.7382ZM35.7249 73.78V72.507H50.0555V75.4218L35.7249 73.78ZM39.7253 82.6891C38.2189 82.6891 36.9054 81.8515 36.2232 80.618L48.2951 82.001C47.6555 82.435 46.8845 82.6889 46.0551 82.6889H39.7253V82.6891Z" fill="black"/>
<path d="M29.0097 37.3176C28.9003 36.5837 28.8482 35.8299 28.8551 35.0771C28.8622 34.3027 28.2402 33.6693 27.4657 33.6622C26.6966 33.6554 26.0579 34.2771 26.0508 35.0515C26.0425 35.9508 26.1048 36.8524 26.2359 37.7313C26.3396 38.4272 26.9379 38.927 27.6211 38.927C27.6899 38.927 27.7597 38.922 27.8298 38.9115C28.5956 38.7971 29.124 38.0836 29.0097 37.3176Z" fill="black"/>
<path d="M37.2621 58.6173C37.4072 58.6173 37.5549 58.5945 37.7003 58.5468C38.436 58.3048 38.8363 57.5123 38.5944 56.7768C37.0403 52.0508 34.7242 47.6477 31.7102 43.6901C31.2122 43.0359 30.7707 42.3391 30.3985 41.6187C30.0429 40.9306 29.1968 40.6614 28.5088 41.017C27.8209 41.3726 27.5515 42.2187 27.9071 42.9067C28.354 43.7709 28.8827 44.6061 29.4791 45.3893C32.3035 49.098 34.474 53.224 35.9303 57.6527C36.1244 58.243 36.6727 58.6173 37.2621 58.6173Z" fill="black"/>
<path d="M57.6102 40.01C56.899 39.7036 56.0739 40.0319 55.7676 40.7431C55.3234 41.7748 54.7485 42.7589 54.0589 43.6679C53.591 44.2849 53.7119 45.1646 54.3289 45.6326C54.5823 45.8248 54.8799 45.9175 55.1751 45.9175C55.599 45.9175 56.0178 45.7262 56.2936 45.3624C57.1198 44.2729 57.8094 43.092 58.3433 41.8526C58.6498 41.1414 58.3216 40.3163 57.6102 40.01Z" fill="black"/>
<path d="M42.8761 21.1871C50.6076 21.1871 56.8976 27.4773 56.8976 35.2088C56.8976 35.6483 56.8774 36.0913 56.8376 36.5252C56.7669 37.2965 57.3346 37.9789 58.1058 38.0498C58.1494 38.0537 58.1926 38.0557 58.2356 38.0557C58.9522 38.0557 59.5636 37.5092 59.6304 36.7815C59.6778 36.2627 59.7022 35.7336 59.7022 35.2088C59.7022 25.9308 52.1541 18.3826 42.8761 18.3826C42.1017 18.3826 41.4739 19.0104 41.4739 19.7848C41.4739 20.5593 42.1017 21.1871 42.8761 21.1871Z" fill="black"/>
<path d="M42.8759 10.9155C43.6503 10.9155 44.2782 10.2877 44.2782 9.51323V1.66056C44.2782 0.88614 43.6503 0.258301 42.8759 0.258301C42.1015 0.258301 41.4736 0.88614 41.4736 1.66056V9.51323C41.4736 10.2877 42.1015 10.9155 42.8759 10.9155Z" fill="black"/>
<path d="M28.6899 13.6862C28.9498 14.1362 29.4209 14.3877 29.9056 14.3877C30.1434 14.3877 30.3846 14.3271 30.6054 14.1996C31.276 13.8124 31.506 12.9547 31.1188 12.2841L27.1943 5.48593C26.8069 4.81509 25.9495 4.5853 25.2789 4.97251C24.6082 5.35973 24.3782 6.21735 24.7654 6.888L28.6899 13.6862Z" fill="black"/>
<path d="M72.8434 51.1348L66.0452 47.2104C65.3744 46.823 64.5168 47.053 64.1297 47.7238C63.7425 48.3945 63.9723 49.2521 64.6432 49.6393L71.4413 53.5637C71.6621 53.6912 71.9031 53.7518 72.1411 53.7518C72.6258 53.7518 73.0971 53.5002 73.3568 53.0503C73.744 52.3797 73.5141 51.522 72.8434 51.1348Z" fill="black"/>
<path d="M12.9088 19.7714L19.707 23.6958C19.9278 23.8234 20.1688 23.8839 20.4068 23.8839C20.8914 23.8839 21.3627 23.6323 21.6224 23.1824C22.0097 22.5118 21.7799 21.6541 21.109 21.2669L14.3109 17.3425C13.6402 16.9551 12.7826 17.185 12.3954 17.8559C12.0082 18.5265 12.2379 19.384 12.9088 19.7714Z" fill="black"/>
<path d="M76.6687 34.0508H68.8161C68.0417 34.0508 67.4138 34.6786 67.4138 35.453C67.4138 36.2275 68.0417 36.8553 68.8161 36.8553H76.6687C77.4431 36.8553 78.071 36.2275 78.071 35.453C78.071 34.6786 77.4433 34.0508 76.6687 34.0508Z" fill="black"/>
<path d="M18.3383 35.453C18.3383 34.6786 17.7105 34.0508 16.9361 34.0508H9.08341C8.30899 34.0508 7.68115 34.6786 7.68115 35.453C7.68115 36.2275 8.30899 36.8553 9.08341 36.8553H16.9361C17.7107 36.8553 18.3383 36.2275 18.3383 35.453Z" fill="black"/>
<path d="M65.3454 23.8838C65.5832 23.8838 65.8244 23.8232 66.0452 23.6957L72.8434 19.7713C73.514 19.384 73.744 18.5264 73.3568 17.8558C72.9696 17.1851 72.1118 16.9551 71.4413 17.3423L64.6431 21.2668C63.9725 21.654 63.7425 22.5116 64.1297 23.1823C64.3894 23.6321 64.8609 23.8838 65.3454 23.8838Z" fill="black"/>
<path d="M19.7072 47.2105L12.909 51.135C12.2383 51.5222 12.0084 52.3798 12.3956 53.0505C12.6553 53.5003 13.1266 53.752 13.6112 53.752C13.8491 53.752 14.0903 53.6914 14.3111 53.5639L21.1092 49.6394C21.7799 49.2522 22.0099 48.3946 21.6226 47.724C21.2356 47.0531 20.3774 46.8233 19.7072 47.2105Z" fill="black"/>
<path d="M55.147 14.1996C55.3678 14.3271 55.6088 14.3877 55.8468 14.3877C56.3315 14.3877 56.8028 14.136 57.0625 13.6862L60.987 6.888C61.3742 6.21735 61.1442 5.35973 60.4736 4.97251C59.8031 4.5853 58.9453 4.81509 58.5581 5.48593L54.6336 12.2841C54.2464 12.9547 54.4764 13.8124 55.147 14.1996Z" fill="black"/>
</g>
<defs>
<clipPath id="clip0_1_308">
<rect width="85.2353" height="85.2353" fill="white" transform="translate(0.258301 0.258301)"/>
</clipPath>
</defs>
</svg>
